<svg xmlns="http://www.w3.org/2000/svg" width="256" height="256" fill="none" viewBox="0 0 256 256" id="github">
  <rect width="224" height="224" x="16" y="16" fill="url(#paint0_linear_531_13621)" rx="70"></rect>
  <path fill="#1F2328" d="M128 61.333C164.833 61.333 194.666 91.1663 194.666 128C194.663 141.968 190.279 155.584 182.132 166.93C173.984 178.276 162.484 186.782 149.25 191.25C145.916 191.916 144.666 189.833 144.666 188.083C144.666 185.833 144.75 178.666 144.75 169.75C144.75 163.5 142.666 159.5 140.25 157.416C155.083 155.75 170.666 150.083 170.666 124.5C170.666 117.166 168.083 111.25 163.833 106.583C164.5 104.916 166.833 98.083 163.166 88.9163C163.166 88.9163 157.583 87.083 144.833 95.7497C139.5 94.2497 133.833 93.4997 128.166 93.4997C122.5 93.4997 116.833 94.2497 111.5 95.7497C98.7497 87.1663 93.1663 88.9163 93.1663 88.9163C89.4997 98.083 91.833 104.916 92.4997 106.583C88.2497 111.25 85.6664 117.25 85.6664 124.5C85.6664 150 101.166 155.75 116 157.416C114.083 159.083 112.333 162 111.75 166.333C107.916 168.083 98.333 170.916 92.333 160.833C91.083 158.833 87.333 153.916 82.083 154C76.4997 154.083 79.833 157.166 82.1663 158.416C84.9997 160 88.2497 165.916 88.9997 167.833C90.333 171.583 94.6664 178.75 111.416 175.666C111.416 181.25 111.5 186.5 111.5 188.083C111.5 189.833 110.25 191.833 106.916 191.25C93.6383 186.83 82.0891 178.341 73.9071 166.988C65.7251 155.635 61.3257 141.994 61.333 128C61.333 91.1663 91.1663 61.333 128 61.333Z"></path>
  <defs>
    <linearGradient id="paint0_linear_531_13621" x1="16" x2="208" y1="16" y2="240" gradientUnits="userSpaceOnUse">
      <stop stop-color="#fff"></stop>
      <stop offset="1" stop-color="#ACCCFF"></stop>
    </linearGradient>
  </defs>
</svg>
